<?xml version="1.0" encoding="utf-8"?>
<!-- Generator: Adobe Illustrator 15.0.2, SVG Export Plug-In . SVG Version: 6.00 Build 0)  -->
<!DOCTYPE svg PUBLIC "-//W3C//DTD SVG 1.1//EN" "http://www.w3.org/Graphics/SVG/1.1/DTD/svg11.dtd">
<svg version="1.1" id="Layer_1" xmlns="http://www.w3.org/2000/svg" xmlns:xlink="http://www.w3.org/1999/xlink" x="0px" y="0px"
	 width="129.804px" height="151.006px" viewBox="0 0 129.804 151.006" enable-background="new 0 0 129.804 151.006"
	 xml:space="preserve">
<g>
	<g>
		<path fill="#669940" d="M19.172,118.426H3.012c-1.664,0-3.012-1.348-3.012-3.012V3.012C0,1.349,1.349,0,3.012,0h91.347
			c1.664,0,3.013,1.349,3.013,3.012v16.16c0,1.664-1.349,3.013-3.013,3.013H22.185v93.229
			C22.185,117.078,20.836,118.426,19.172,118.426z M6.025,112.4H16.16V19.172c0-1.664,1.349-3.012,3.012-3.012h72.174V6.025H6.025
			V112.4z"/>
	</g>
	<g>
		<path fill="#669940" d="M35.332,134.586H19.172c-1.664,0-3.012-1.35-3.012-3.014v-112.4c0-1.664,1.349-3.012,3.012-3.012h91.346
			c1.664,0,3.013,1.349,3.013,3.012v16.16c0,1.664-1.349,3.012-3.013,3.012H38.344v93.228
			C38.344,133.236,36.995,134.586,35.332,134.586z M22.185,128.561h10.134V35.332c0-1.664,1.349-3.013,3.013-3.013h72.174V22.185
			h-85.32V128.561z"/>
	</g>
	<g>
		<g>
			<path fill="#669940" d="M126.792,151.006H35.445c-1.664,0-3.013-1.348-3.013-3.014V35.59c0-1.664,1.349-3.013,3.013-3.013h91.347
				c1.664,0,3.013,1.349,3.013,3.013v112.402C129.804,149.658,128.456,151.006,126.792,151.006z M38.457,144.98h85.322V38.603
				H38.457V144.98z"/>
		</g>
		<g>
			<path fill="#669940" d="M107.762,57.614H52.793c-1.664,0-3.012-1.349-3.012-3.012c0-1.664,1.349-3.013,3.012-3.013h54.969
				c1.664,0,3.013,1.349,3.013,3.013C110.775,56.265,109.426,57.614,107.762,57.614z"/>
		</g>
		<g>
			<path fill="#669940" d="M107.762,76.295H52.793c-1.664,0-3.012-1.349-3.012-3.013c0-1.664,1.349-3.012,3.012-3.012h54.969
				c1.664,0,3.013,1.349,3.013,3.012C110.775,74.946,109.426,76.295,107.762,76.295z"/>
		</g>
		<g>
			<path fill="#669940" d="M107.762,94.977H52.793c-1.664,0-3.012-1.348-3.012-3.012s1.349-3.014,3.012-3.014h54.969
				c1.664,0,3.013,1.35,3.013,3.014S109.426,94.977,107.762,94.977z"/>
		</g>
		<g>
			<path fill="#669940" d="M107.762,113.658H52.793c-1.664,0-3.012-1.348-3.012-3.012s1.349-3.014,3.012-3.014h54.969
				c1.664,0,3.013,1.35,3.013,3.014S109.426,113.658,107.762,113.658z"/>
		</g>
		<g>
			<path fill="#669940" d="M107.762,132.34H52.793c-1.664,0-3.012-1.348-3.012-3.012s1.349-3.014,3.012-3.014h54.969
				c1.664,0,3.013,1.35,3.013,3.014S109.426,132.34,107.762,132.34z"/>
		</g>
	</g>
</g>
</svg>
