<?xml version="1.0" encoding="utf-8"?>
<!-- Generator: Adobe Illustrator 15.0.2, SVG Export Plug-In . SVG Version: 6.00 Build 0)  -->
<!DOCTYPE svg PUBLIC "-//W3C//DTD SVG 1.1//EN" "http://www.w3.org/Graphics/SVG/1.1/DTD/svg11.dtd">
<svg version="1.1" id="Layer_1" xmlns="http://www.w3.org/2000/svg" xmlns:xlink="http://www.w3.org/1999/xlink" x="0px" y="0px"
	 width="131.405px" height="151.006px" viewBox="0 0 131.405 151.006" enable-background="new 0 0 131.405 151.006"
	 xml:space="preserve">
<g>
	<path fill="#13436B" d="M64.962,48.959c-0.036,0-0.073,0.002-0.11,0.002l0.11,38.304l-30.108,23.678
		c7.013,8.903,17.893,14.623,30.108,14.623c21.155,0,38.304-17.148,38.304-38.301C103.266,66.107,86.117,48.959,64.962,48.959z"/>
	<path fill="#13436B" d="M130.756,48.309l-5.303-7.954c-1.184-1.775-3.582-2.254-5.356-1.072l-8.433,5.623
		c-0.652-0.712-1.321-1.412-2.006-2.098c-5.818-5.817-12.596-10.387-20.144-13.58c-5.068-2.143-10.34-3.601-15.75-4.361v-5.145
		h3.392c1.948,0,3.529-1.581,3.529-3.529V3.532c0-1.95-1.581-3.532-3.529-3.532H52.528C50.58,0,49,1.582,49,3.532v12.66
		c0,1.948,1.58,3.529,3.529,3.529h3.428v5.139c-5.424,0.76-10.706,2.22-15.787,4.367c-7.548,3.193-14.325,7.763-20.143,13.58
		c-0.686,0.686-1.354,1.386-2.005,2.098l-8.433-5.623c-1.775-1.182-4.173-0.703-5.357,1.072l-5.303,7.954
		C-2.254,50.082-1.775,52.48,0,53.665l8.21,5.475c-0.627,1.248-1.217,2.519-1.763,3.812c-3.307,7.819-4.984,16.12-4.984,24.672
		c0,8.555,1.677,16.856,4.984,24.676c3.192,7.547,7.761,14.323,13.579,20.144c5.818,5.816,12.595,10.386,20.143,13.576
		c7.819,3.308,16.121,4.987,24.672,4.987c8.552,0,16.854-1.68,24.673-4.987c7.548-3.19,14.325-7.76,20.144-13.576
		c5.818-5.82,10.387-12.597,13.578-20.144c3.308-7.819,4.984-16.121,4.984-24.676c0-8.552-1.677-16.853-4.984-24.672
		c-0.546-1.293-1.136-2.563-1.762-3.812l8.21-5.475C131.459,52.48,131.939,50.082,130.756,48.309z M64.842,135.291
		c-26.282,0-47.666-21.385-47.666-47.668S38.56,39.958,64.842,39.958c26.283,0,47.665,21.382,47.665,47.665
		S91.125,135.291,64.842,135.291z"/>
</g>
</svg>
