<?xml version="1.0" encoding="utf-8"?>
<!-- Generator: Adobe Illustrator 19.2.1, SVG Export Plug-In . SVG Version: 6.00 Build 0)  -->
<svg version="1.1" id="Layer_1" xmlns="http://www.w3.org/2000/svg" xmlns:xlink="http://www.w3.org/1999/xlink" x="0px" y="0px"
	 viewBox="0 0 209.2 151" style="enable-background:new 0 0 209.2 151;" xml:space="preserve">
<style type="text/css">
	.st0{fill:none;}
	.st1{fill:#664C2F;}
</style>
<polygon class="st0" points="140.3,68.8 119.7,65.6 119.7,74.2 140.3,76 "/>
<polygon class="st0" points="85.6,71.2 108,73.1 108,63.8 85.6,60.3 "/>
<polygon class="st0" points="140.3,54.7 119.7,48.8 119.7,57.2 140.3,61.7 "/>
<polygon class="st0" points="85.6,49.8 108,54.7 108,45.4 85.6,39 "/>
<path class="st0" d="M108,35.9v-9l-21-8.8c-0.5,0.3-0.9,0.7-1.4,1.1v8.7L108,35.9z"/>
<path class="st0" d="M143.2,93.6l-54.9,4.5c19.1,13,45.3,11.1,62.2-5.8c19.1-19.1,19.1-50.1,0-69.2c-15.8-15.7-39.6-18.5-58.2-8.3
	l51,23.1L143.2,93.6L143.2,93.6z"/>
<polygon class="st0" points="85.6,93 108,92 108,82.5 85.6,82.1 "/>
<polygon class="st0" points="140.3,40.4 119.7,31.8 119.7,40.1 140.3,47.5 "/>
<polygon class="st0" points="140.3,83.1 119.7,82.7 119.7,91.5 140.3,90.7 "/>
<path class="st1" d="M208,132.4c-3.2-3.2-34-31-36.4-33.1c-0.3-0.2-0.5-0.4-0.8-0.6c-0.2,1.9-1.5,4.7-5.5,8.6
	c-3.7,3.7-6.4,5.1-8.3,5.4c0.1,0.2,0.3,0.4,0.4,0.6c1.5,1.7,16.7,18.6,26.1,28.8c3.5,3.8,6.1,6.7,7,7.5c3.2,3.2,10.6-0.6,13.7-3.9
	C207.5,142.6,211.2,135.6,208,132.4z"/>
<path class="st1" d="M156.7,16.9c-20.1-20.1-51.4-22.3-73.9-6.4l0,0c-2.7,1.9-5.2,4-7.6,6.4c-22.5,22.5-22.5,59,0,81.6
	c0.1,0.1,0.7,0.7,0.7,0.7c18.9,18.3,47.3,21.1,69.1,8.4c0.8,0.7,3.1,2.4,7.1,1.2c2.4-0.7,5.3-2.4,8.8-5.9c3.5-3.5,5.2-6.4,5.9-8.8
	c1.1-3.8-0.4-6.1-1.2-6.9C178.7,65,175.7,35.9,156.7,16.9z M85.6,19.2L85.6,19.2v-1.6l1.4,0.6c0,0,0,0,0,0l21,8.8v9l-22.4-8V19.2z
	 M85.6,39l22.4,6.4v9.2l-22.4-4.9V39z M85.6,60.3l22.4,3.5v9.3l-22.4-2V60.3z M85.6,82.1l22.4,0.4V92l-22.4,1V82.1z M150.5,92.3
	c-16.8,16.8-49.7,15.6-61.9,6c-1.3-1-3.7-3.5-3.7-3.5l58.3-1.2V37.9l-51-23.1c0,0,0,0,0,0l0,0c18.6-10.2,42.5-7.5,58.2,8.3
	C169.6,42.1,169.6,73.2,150.5,92.3z M140.3,54.7v7l-20.6-4.5v-8.4L140.3,54.7z M119.7,40.1v-8.3l20.6,8.6v7L119.7,40.1z M140.3,68.8
	V76l-20.6-1.8v-8.5L140.3,68.8z M140.3,83.1v7.5l-20.6,0.9v-8.8L140.3,83.1z"/>
<g>
	<polygon class="st1" points="0,53.2 0,58.2 13.9,54.2 13.9,60.2 0,63.3 0,68.5 13.9,66.3 13.9,72.2 0,73.5 0,78.5 13.9,78.2 
		13.9,84.3 0,83.6 0,86.1 13.9,87.3 20.3,87.8 20.3,48.7 13.9,48.1 	"/>
	<path class="st1" d="M57.6,34.4c1.1-1.9,2.4-4.7,4.2-5.9L49,22.7L20.3,36.1v3.2l26.6-11.5v8.3l-26.6,9.7v2.9v3.6l26.6-7.8v8.3
		l-26.6,6v6.5L46.9,61v8.3l-26.6,2.4v6.5l26.6-0.5v8.3l-26.6-1.3v3.2L49,90.2l12.3-1c-0.2-0.1-0.3-0.3-0.5-0.4
		C53.5,80.9,47.6,51.5,57.6,34.4z"/>
</g>
</svg>
