<?xml version="1.0" encoding="utf-8"?>
<!-- Generator: Adobe Illustrator 15.0.2, SVG Export Plug-In . SVG Version: 6.00 Build 0)  -->
<!DOCTYPE svg PUBLIC "-//W3C//DTD SVG 1.1//EN" "http://www.w3.org/Graphics/SVG/1.1/DTD/svg11.dtd">
<svg version="1.1" id="Layer_1" xmlns="http://www.w3.org/2000/svg" xmlns:xlink="http://www.w3.org/1999/xlink" x="0px" y="0px"
	 width="219.522px" height="150.999px" viewBox="0 0 219.522 150.999" enable-background="new 0 0 219.522 150.999"
	 xml:space="preserve">
<g>
	<path fill="#A6592C" d="M219.522,101.378c0-27.384-22.199-49.583-49.582-49.583c-6.156,0-12.049,1.125-17.488,3.175
		c2.364,7.203,3.649,14.894,3.649,22.888c0,21.802-9.521,41.377-24.626,54.809c9.092,11.164,22.943,18.332,38.465,18.332
		c11.124,0,21.394-3.447,29.667-9.815l16.686,6.406l-4.286-19.937C216.769,120.038,219.522,111.02,219.522,101.378z M174.463,72.713
		c3.937,0,7.13,3.191,7.13,7.127s-3.193,7.128-7.13,7.128c-3.936,0-7.127-3.191-7.127-7.128S170.527,72.713,174.463,72.713z
		 M184.199,128.375h-19.274v-8.03h2.678v-21.95h-2.678v-8.03h2.85h13.747v29.98h2.678V128.375z"/>
	<path fill="#A6592C" d="M73.317,0C32.825,0,0,32.825,0,73.318c0,14.258,4.073,27.565,11.114,38.824l-6.341,29.454l24.676-9.527
		c12.232,9.148,27.418,14.567,43.868,14.567c40.491,0,73.318-32.825,73.318-73.318C146.636,32.825,113.809,0,73.317,0z
		 M77.574,111.297c-1.616,1.436-3.483,2.154-5.601,2.154c-2.19,0-4.102-0.71-5.735-2.127c-1.634-1.418-2.449-3.402-2.449-5.951
		c0-2.262,0.789-4.164,2.367-5.709c1.581-1.542,3.52-2.314,5.817-2.314c2.262,0,4.164,0.772,5.708,2.314
		c1.544,1.545,2.314,3.447,2.314,5.709C79.996,107.887,79.189,109.861,77.574,111.297z M98.145,63.153
		c-1.241,2.297-2.713,4.281-4.417,5.951c-1.707,1.669-4.766,4.478-9.183,8.426c-1.22,1.113-2.198,2.092-2.936,2.936
		c-0.734,0.844-1.283,1.616-1.642,2.314c-0.359,0.701-0.638,1.4-0.835,2.102c-0.196,0.699-0.493,2.069-0.887,3.826
		c-0.374,2.041,0.388,3.514-0.852,4.584h-11.85c-1.274-1.605-0.332-3.846-0.332-6.251c0-3.017,0.467-5.698,1.4-7.905
		c0.933-2.208,2.171-4.182,3.717-5.851c1.542-1.669,3.625-3.669,6.246-5.969c2.298-2.009,3.958-3.537,4.981-4.559
		c1.021-1.024,1.885-2.167,2.584-3.423c0.702-1.257,1.05-2.623,1.05-4.095c0-2.871-1.068-5.296-3.204-7.271
		c-2.137-1.974-4.892-2.963-8.266-2.963c-3.949,0-6.857,0.997-8.725,2.988c-1.867,1.993-4.739,8.805-4.739,8.805l-13.915,0.213
		c0,0,0.901-7.725,3.093-11.226c2.188-3.5,5.384-6.399,9.584-8.697c4.202-2.298,9.102-3.446,14.702-3.446
		c5.205,0,9.8,0.96,13.786,2.881c3.985,1.922,7.062,4.532,9.234,7.835c2.172,3.304,3.259,6.893,3.259,10.77
		C100.001,58.181,99.381,60.855,98.145,63.153z"/>
</g>
</svg>
