<?xml version="1.0" encoding="utf-8"?>
<!-- Generator: Adobe Illustrator 15.0.2, SVG Export Plug-In . SVG Version: 6.00 Build 0)  -->
<!DOCTYPE svg PUBLIC "-//W3C//DTD SVG 1.1//EN" "http://www.w3.org/Graphics/SVG/1.1/DTD/svg11.dtd">
<svg version="1.1" id="Layer_1" xmlns="http://www.w3.org/2000/svg" xmlns:xlink="http://www.w3.org/1999/xlink" x="0px" y="0px"
	 width="185.968px" height="156.138px" viewBox="0 0 185.968 156.138" enable-background="new 0 0 185.968 156.138"
	 xml:space="preserve">
<path fill="#636C76" d="M170.687,156.138H15.224c-4.173,0-8.007-1.69-10.769-4.455C1.692,148.921,0,145.085,0,140.915V41.053
	c0-4.174,1.692-8.008,4.455-10.771c2.762-2.762,6.596-4.455,10.769-4.455h80.805v-15.9c0-2.652,2.027-4.794,4.51-4.794h43.363
	c2.537,0,4.566,2.142,4.566,4.794v15.9h22.219c4.227,0,8.061,1.693,10.822,4.455c2.766,2.764,4.459,6.598,4.459,10.771v99.861
	c0,4.171-1.693,8.007-4.459,10.769C178.748,154.448,174.914,156.138,170.687,156.138L170.687,156.138z M119.146,89.94L79.451,58.701
	c-1.805-1.805-1.917-4.847-0.227-6.767c0.902-1.015,2.142-1.521,3.327-1.521l0,0h13.477V35.977H15.224
	c-1.352,0-2.649,0.562-3.55,1.466c-0.961,0.959-1.523,2.2-1.523,3.61v58.584h165.664V41.053c0-1.41-0.619-2.651-1.521-3.61
	c-0.9-0.904-2.199-1.466-3.605-1.466h-22.219v14.436h13.477c2.48,0,4.512,2.143,4.512,4.793c0,1.521-0.623,2.875-1.637,3.72
	L125.349,89.94C123.603,91.69,120.839,91.69,119.146,89.94L119.146,89.94z M58.756,83.963H31.126c-2.933,0-5.358-2.368-5.358-5.302
	V55.767c0-2.932,2.425-5.354,5.358-5.354h27.629c2.931,0,5.302,2.423,5.302,5.354v22.895C64.058,81.595,61.687,83.963,58.756,83.963
	L58.756,83.963z M175.814,125.916H10.15v14.999c0,1.41,0.562,2.65,1.523,3.553c0.901,0.958,2.199,1.521,3.55,1.521h155.463
	c1.406,0,2.705-0.562,3.605-1.521c0.902-0.902,1.521-2.143,1.521-3.553V125.916z"/>
</svg>
